<?xml version="1.0" encoding="UTF-8" standalone="no"?>
<!DOCTYPE svg PUBLIC "-//W3C//DTD SVG 1.1//EN" "http://www.w3.org/Graphics/SVG/1.1/DTD/svg11.dtd">
<svg width="100%" height="100%" viewBox="0 0 31 31" version="1.1" xmlns="http://www.w3.org/2000/svg" xmlns:xlink="http://www.w3.org/1999/xlink" xml:space="preserve" xmlns:serif="http://www.serif.com/" style="fill-rule:evenodd;clip-rule:evenodd;stroke-linejoin:round;stroke-miterlimit:2;">
    <g transform="matrix(0.48,0,0,0.48,0,0)">
        <path d="M40.458,8.049C46.156,10.59 54.403,16.973 54.403,32.628C54.403,56.546 35.97,57.408 35.97,57.408L9.382,57.408L9.382,6.287L35.152,6.436C35.152,6.436 36.181,6.557 37.762,7.039L31.775,15.625L40.21,15.777L36.566,20.043C34.807,18.457 33.113,18.379 33.113,18.379L23.447,18.428L23.447,45.683L34.418,45.683C34.418,45.683 40.437,45.749 40.437,32.233C40.437,26.814 39.259,23.513 37.849,21.503L45.651,13.304L37.17,13.255L40.458,8.049Z"/>
    </g>
</svg>
